<svg xmlns="http://www.w3.org/2000/svg" viewBox="0 0 32 32" fill="none">
  <rect width="32" height="32" rx="8" fill="url(#g)"/>
  <path d="M16 7a1 1 0 0 1 1 1v2h3a2 2 0 0 1 2 2v1a1 1 0 0 1-1 1H11a1 1 0 0 1-1-1v-1a2 2 0 0 1 2-2h3V8a1 1 0 0 1 1-1ZM10 16h12l-1.2 7.2a2 2 0 0 1-2 1.8h-5.6a2 2 0 0 1-2-1.8L10 16Z" fill="#fff"/>
  <defs>
    <linearGradient id="g" x1="0" y1="0" x2="32" y2="32" gradientUnits="userSpaceOnUse">
      <stop stop-color="#22c55e"/>
      <stop offset="1" stop-color="#059669"/>
    </linearGradient>
  </defs>
</svg>
